<mxfile host="Electron" modified="2023-08-10T02:11:41.115Z" agent="Mozilla/5.0 (Windows NT 10.0; Win64; x64) AppleWebKit/537.36 (KHTML, like Gecko) draw.io/21.6.5 Chrome/114.0.5735.243 Electron/25.3.1 Safari/537.36" etag="Uw2cUSAPVWeby4j1e1QO" version="21.6.5" type="device">
  <diagram name="Page-1" id="riA5ZjqV5T8n5O3Lx2P9">
    <mxGraphModel dx="880" dy="545" grid="1" gridSize="10" guides="1" tooltips="1" connect="1" arrows="1" fold="1" page="1" pageScale="1" pageWidth="1169" pageHeight="827" math="0" shadow="0">
      <root>
        <mxCell id="0" />
        <mxCell id="1" parent="0" />
        <mxCell id="Wo-pwayqsVUlVBgQnqUD-1" value="&lt;span style=&quot;font-weight: normal;&quot;&gt;«profile»&lt;/span&gt;&lt;br&gt;Java" style="shape=folder;fontStyle=1;tabWidth=50;tabHeight=20;tabPosition=left;html=1;boundedLbl=1;whiteSpace=wrap;" vertex="1" parent="1">
          <mxGeometry width="120" height="90" as="geometry" />
        </mxCell>
        <mxCell id="Wo-pwayqsVUlVBgQnqUD-2" value="&lt;span style=&quot;font-weight: normal;&quot;&gt;«profile»&lt;/span&gt;&lt;br&gt;EJB" style="shape=folder;fontStyle=1;tabWidth=50;tabHeight=20;tabPosition=left;html=1;boundedLbl=1;whiteSpace=wrap;" vertex="1" parent="1">
          <mxGeometry x="190" width="120" height="90" as="geometry" />
        </mxCell>
        <mxCell id="Wo-pwayqsVUlVBgQnqUD-4" style="rounded=0;orthogonalLoop=1;jettySize=auto;html=1;exitX=0;exitY=0;exitDx=25;exitDy=0;exitPerimeter=0;entryX=0.5;entryY=1;entryDx=0;entryDy=0;entryPerimeter=0;endArrow=open;verticalAlign=bottom;dashed=1;endFill=0;labelBackgroundColor=none;endSize=12;" edge="1" parent="1" source="Wo-pwayqsVUlVBgQnqUD-3" target="Wo-pwayqsVUlVBgQnqUD-1">
          <mxGeometry relative="1" as="geometry" />
        </mxCell>
        <mxCell id="Wo-pwayqsVUlVBgQnqUD-6" value="«apply»" style="edgeLabel;html=1;align=center;verticalAlign=middle;resizable=0;points=[];" vertex="1" connectable="0" parent="Wo-pwayqsVUlVBgQnqUD-4">
          <mxGeometry x="0.0026" y="-1" relative="1" as="geometry">
            <mxPoint x="-41" as="offset" />
          </mxGeometry>
        </mxCell>
        <mxCell id="Wo-pwayqsVUlVBgQnqUD-5" style="rounded=0;orthogonalLoop=1;jettySize=auto;html=1;exitX=0;exitY=0;exitDx=85;exitDy=20;exitPerimeter=0;entryX=0.5;entryY=1;entryDx=0;entryDy=0;entryPerimeter=0;endArrow=open;verticalAlign=bottom;dashed=1;endFill=0;labelBackgroundColor=none;endSize=12;" edge="1" parent="1" source="Wo-pwayqsVUlVBgQnqUD-3" target="Wo-pwayqsVUlVBgQnqUD-2">
          <mxGeometry relative="1" as="geometry" />
        </mxCell>
        <mxCell id="Wo-pwayqsVUlVBgQnqUD-7" value="«apply»" style="edgeLabel;html=1;align=center;verticalAlign=middle;resizable=0;points=[];" vertex="1" connectable="0" parent="Wo-pwayqsVUlVBgQnqUD-5">
          <mxGeometry x="0.0569" y="-1" relative="1" as="geometry">
            <mxPoint x="30" y="1" as="offset" />
          </mxGeometry>
        </mxCell>
        <mxCell id="Wo-pwayqsVUlVBgQnqUD-3" value="WebShopping" style="shape=folder;fontStyle=1;tabWidth=50;tabHeight=20;tabPosition=left;html=1;boundedLbl=1;whiteSpace=wrap;" vertex="1" parent="1">
          <mxGeometry x="100" y="130" width="120" height="90" as="geometry" />
        </mxCell>
        <mxCell id="Wo-pwayqsVUlVBgQnqUD-8" value="&lt;b&gt;Figure 12.23 Profiles Applied to a Package&lt;/b&gt;" style="text;html=1;align=left;verticalAlign=middle;resizable=0;points=[];autosize=1;strokeColor=none;fillColor=none;" vertex="1" parent="1">
          <mxGeometry y="220" width="260" height="30" as="geometry" />
        </mxCell>
      </root>
    </mxGraphModel>
  </diagram>
</mxfile>
